<svg xmlns="http://www.w3.org/2000/svg" width="240" height="240" viewBox="0 0 240 240">
  <title>Google Maps MCP — location pin</title>
  <defs>
    <filter id="cardShadow" x="-20%" y="-20%" width="140%" height="140%">
      <feDropShadow dx="0" dy="6" stdDeviation="8" flood-color="#000000" flood-opacity="0.10"/>
    </filter>
    <filter id="pinShadow" x="-30%" y="-20%" width="160%" height="140%">
      <feDropShadow dx="0" dy="3" stdDeviation="4" flood-color="#8B1510" flood-opacity="0.25"/>
    </filter>
  </defs>

  <rect x="12" y="12" width="216" height="216" rx="48" fill="#FFFFFF" stroke="#E5E7EB" stroke-width="1.5" filter="url(#cardShadow)"/>

  <g fill="none" stroke-linecap="round" opacity="0.95">
    <path d="M 28 78 Q 78 62, 130 92 T 214 98" stroke="#DBEAFE" stroke-width="3"/>
    <path d="M 28 148 Q 72 130, 118 150 T 214 160" stroke="#E0E7FF" stroke-width="3"/>
    <path d="M 28 188 Q 68 178, 110 184 T 214 196" stroke="#DBEAFE" stroke-width="2.5"/>
    <circle cx="58" cy="82" r="3" fill="#93C5FD" stroke="none"/>
    <circle cx="188" cy="162" r="3" fill="#A5B4FC" stroke="none"/>
    <circle cx="46" cy="190" r="2.5" fill="#93C5FD" stroke="none"/>
  </g>

  <svg x="58" y="24" width="124" height="124" viewBox="0 -960 960 960">
    <g filter="url(#pinShadow)">
      <path d="M480-80Q319-217 239.5-334.5T160-552q0-150 96.5-239T480-880q127 0 223.5 89T800-552q0 100-79.5 217.5T480-80Zm0-106q122-112 181-203.5T720-552q0-109-69.5-178.5T480-800q-101 0-170.5 69.5T240-552q0 71 59 162.5T480-186Zm0-294q33 0 56.5-23.5T560-560q0-33-23.5-56.5T480-640q-33 0-56.5 23.5T400-560q0 33 23.5 56.5T480-480Zm0-80Z" fill="#EA4335"/>
    </g>
  </svg>

  <g transform="translate(120, 200)">
    <rect x="-42" y="-16" width="84" height="32" rx="16" fill="#0F172A"/>
    <text x="0" y="6" text-anchor="middle" fill="#60A5FA" font-family="ui-sans-serif, system-ui, -apple-system, sans-serif" font-size="15" font-weight="700" letter-spacing="2">MCP</text>
  </g>
</svg>
