<svg xmlns="http://www.w3.org/2000/svg" width="220" height="280" viewBox="0 0 220 280" fill="none">
  <defs>
    <linearGradient id="pinFill" x1="50%" y1="0%" x2="50%" y2="100%">
      <stop offset="0%" stop-color="#EA4335"/>
      <stop offset="100%" stop-color="#B31412"/>
    </linearGradient>
    <linearGradient id="pinHighlight" x1="30%" y1="10%" x2="70%" y2="90%">
      <stop offset="0%" stop-color="#FFFFFF" stop-opacity="0.4"/>
      <stop offset="60%" stop-color="#FFFFFF" stop-opacity="0"/>
    </linearGradient>
    <radialGradient id="glow" cx="50%" cy="50%" r="50%">
      <stop offset="0%" stop-color="#EA4335" stop-opacity="0.18"/>
      <stop offset="100%" stop-color="#EA4335" stop-opacity="0"/>
    </radialGradient>
  </defs>

  <circle cx="110" cy="90" r="90" fill="url(#glow)"/>

  <path
    d="M 110 22
       C 68 22, 38 52, 38 92
       C 38 142, 110 202, 110 202
       C 110 202, 182 142, 182 92
       C 182 52, 152 22, 110 22 Z"
    fill="url(#pinFill)"
    stroke="#FFFFFF"
    stroke-width="3.5"
    stroke-linejoin="round"/>

  <path
    d="M 110 22
       C 68 22, 38 52, 38 92
       C 38 142, 110 202, 110 202
       C 110 202, 182 142, 182 92
       C 182 52, 152 22, 110 22 Z"
    fill="url(#pinHighlight)"/>

  <circle cx="110" cy="90" r="24" fill="#FFFFFF"/>
  <circle cx="110" cy="90" r="14" fill="#C5221F"/>

  <ellipse cx="110" cy="218" rx="26" ry="5" fill="#000000" opacity="0.18"/>

  <g transform="translate(110, 252)">
    <rect x="-48" y="-20" width="96" height="40" rx="20" fill="#1E293B" stroke="#60A5FA" stroke-width="2"/>
    <text
      x="0" y="7"
      text-anchor="middle"
      fill="#60A5FA"
      font-family="ui-sans-serif, system-ui, -apple-system, sans-serif"
      font-size="20"
      font-weight="700"
      letter-spacing="2.5">MCP</text>
  </g>
</svg>
